# xmcd
#
# Track frame offsets: 
#        150
#        17783
#        47053
#        71162
#        92191
#        121234
#        145546
#        164117
#        192966
#
# Disc length: 2709 seconds
#
# Revision: 0
# Processed by: cddbd v1.5.2PL0 Copyright (c) Steve Scherf et al.
# Submitted via: ExactAudioCopy v1.0b3
#
DISCID=7f0a9309
DTITLE=Blinddog Smokin' - Up From The Tracks
DYEAR=2011
DGENRE=Blues
TTITLE0=Money
TTITLE1=Angels At The Crossroads
TTITLE2=Bobby Rush's Bus
TTITLE3=Lace and Leather
TTITLE4=Just Come Home To Die
TTITLE5=Miss Peggy's
TTITLE6=Funky Old Man
TTITLE7=Church Of Fools
TTITLE8=Cognac And Chocolate
EXTD=
EXTT0=
EXTT1=
EXTT2=
EXTT3=
EXTT4=
EXTT5=
EXTT6=
EXTT7=
EXTT8=
PLAYORDER=
